<?xml version="1.0" encoding="utf-8"?>
<!-- Generator: Adobe Illustrator 16.0.0, SVG Export Plug-In . SVG Version: 6.00 Build 0)  -->
<!DOCTYPE svg PUBLIC "-//W3C//DTD SVG 1.1//EN" "http://www.w3.org/Graphics/SVG/1.1/DTD/svg11.dtd">
<svg version="1.1" xmlns="http://www.w3.org/2000/svg" xmlns:xlink="http://www.w3.org/1999/xlink" x="0px" y="0px"
	 width="403.975px" height="133px" viewBox="0 0 403.975 133" enable-background="new 0 0 403.975 133" xml:space="preserve">
<g id="Layer_1">
	<rect x="171.315" fill="#F8DC3D" width="133" height="133"/>
	<g>
		<path d="M206.666,110.888l9.926-6.007c1.914,3.396,3.656,6.269,7.836,6.269c4.004,0,6.529-1.567,6.529-7.662V62.044h12.189v41.617
			c0,12.625-7.4,18.371-18.197,18.371C215.198,122.032,209.539,116.982,206.666,110.888z"/>
		<path d="M249.765,109.582l9.926-5.746c2.611,4.266,6.008,7.4,12.016,7.4c5.049,0,8.271-2.525,8.271-6.008
			c0-4.179-3.309-5.659-8.881-8.097l-3.047-1.307c-8.795-3.743-14.629-8.445-14.629-18.371c0-9.142,6.967-16.106,17.85-16.106
			c7.748,0,13.32,2.698,17.326,9.751l-9.49,6.095c-2.09-3.744-4.354-5.224-7.836-5.224c-3.57,0-5.834,2.264-5.834,5.224
			c0,3.656,2.264,5.137,7.488,7.4l3.047,1.307c10.361,4.44,16.195,8.968,16.195,19.154c0,10.971-8.621,16.978-20.199,16.978
			C260.648,122.032,253.335,116.635,249.765,109.582z"/>
	</g>
	<g>
		<g>
			<path fill="#FFFFFF" d="M43.708,121.249H29.603l-9.751-14.976c-1.132,0.174-2.351,0.262-3.482,0.262h-4.179v14.714H0V62.044
				h16.369c16.542,0,26.468,7.923,26.468,22.376c0,9.229-4.092,15.062-11.406,18.371L43.708,121.249z M16.021,95.913
				c9.925,0,14.279-3.135,14.279-11.493s-4.527-11.667-14.279-11.667h-3.831v23.16H16.021z"/>
			<path fill="#FFFFFF" d="M66.262,93.04c-4.44,0-6.791,1.915-8.445,3.395l-6.53-6.965c3.483-3.396,7.4-6.095,16.107-6.095
				c9.49,0,16.717,5.137,16.717,16.804v21.07H72.443l0.261-5.137c-2.786,4.266-6.007,5.92-10.97,5.92
				c-6.792,0-13.06-3.047-13.06-11.667c0-7.923,6.007-11.144,15.15-11.144h8.619C72.27,94.955,70.18,93.04,66.262,93.04z
				 M64.434,106.187c-2.961,0-4.267,1.306-4.267,3.396s1.741,3.309,5.05,3.309c4.789,0,7.227-2.09,7.227-5.224v-1.48H64.434z"/>
			<path fill="#FFFFFF" d="M91.948,70.576c0-4.267,3.483-7.313,7.488-7.313s7.4,3.047,7.4,7.313c0,4.354-3.396,7.401-7.4,7.401
				S91.948,74.93,91.948,70.576z M93.516,84.159h11.754v37.09H93.516V84.159z"/>
			<path fill="#FFFFFF" d="M115.197,58.387h11.667v62.862h-11.667V58.387z"/>
			<path fill="#FFFFFF" d="M133.654,114.98l6.879-6.095c2.524,2.438,5.746,3.918,9.229,3.918c3.831,0,5.05-0.696,5.05-2.264
				c0-2.003-2.351-2.003-8.358-3.57c-5.05-1.306-10.709-4.092-10.709-11.841c0-8.358,6.443-11.754,14.366-11.754
				c6.095,0,10.448,2.003,13.495,5.137l-6.269,6.704c-1.741-1.48-4.354-2.785-7.14-2.785c-2.699,0-4.005,0.695-4.005,2.176
				c0,2.09,2.351,2.352,7.4,3.482c5.398,1.219,12.189,3.744,12.189,11.58c0,6.791-3.569,12.363-15.236,12.363
				C141.926,122.032,136.876,118.812,133.654,114.98z"/>
		</g>
		<g display="none">
			<polygon id="polygon3282" display="inline" fill="#FFFFFF" points="101.155,75.515 90.012,72.977 99.831,81.114 109.378,72.489 
							"/>
			<polygon id="polygon3293" display="inline" fill="#FFFFFF" points="99.852,81.123 104.258,74.898 99.389,75.698 			"/>
			<polygon id="polygon3304" display="inline" fill="#FFFFFF" points="99.862,81.134 94.487,75.158 90.053,72.995 			"/>
			<polygon id="polygon3319" display="inline" fill="#FFFFFF" points="90.062,73.003 96.029,69.628 92.187,67.276 			"/>
			<polygon id="polygon3334" display="inline" fill="#FFFFFF" points="99.373,75.714 103.009,69.214 95.785,69.165 			"/>
			<polygon id="polygon3349" display="inline" fill="#FFFFFF" points="107.618,73.736 106.81,67.354 102.714,69.649 			"/>
			<polygon id="polygon3362" display="inline" fill="#FFFFFF" points="109.731,68.13 106.492,67.285 106.281,64.821 			"/>
			<polygon id="polygon3375" display="inline" fill="#FFFFFF" points="89.831,68.074 92.264,67.296 93.381,64.679 			"/>
			<path id="path3377" inkscape:connector-curvature="0" display="inline" fill="#FFFFFF" d="M93.391,64.571l-1.227,2.743
				l3.818,2.284l6.765,0.075l4.074-2.257l-0.525-2.645l-3.68-1.563c-1.61-0.018-4.765-0.021-4.853-0.047S94.775,64.11,93.391,64.571
				z"/>
			<path id="path3400" inkscape:connector-curvature="0" display="inline" fill="#FFFFFF" d="M99.44,63.298
				c3.6-0.077,7.021,1.107,7.059,2.904c0.038,1.797-3.071,3.121-6.669,3.197c-3.599,0.075-7.047-1.021-7.085-2.816
				C92.707,64.786,95.842,63.374,99.44,63.298z"/>
			<path id="path3413" inkscape:connector-curvature="0" display="inline" fill="#FFFFFF" d="M90.062,73.001l5.971-3.4l3.323,6.079
				C96.086,75.658,92.861,75.202,90.062,73.001z"/>
			<path id="path3424" inkscape:connector-curvature="0" display="inline" fill="#FFFFFF" d="M102.762,69.671l-3.392,6.027
				c2.887-0.146,5.733-0.547,8.287-1.963L102.762,69.671z"/>
			<path id="path3435" inkscape:connector-curvature="0" display="inline" fill="#FFFFFF" d="M107.621,73.748
				c1.899-1.017,4.035-3.035,2.092-5.632l-2.897-0.754L107.621,73.748z"/>
			<path id="path3437" inkscape:connector-curvature="0" display="inline" fill="#FFFFFF" d="M89.853,68.052
				c-2.257,2.512-0.527,4.226,0.205,4.961l2.117-5.705L89.853,68.052z"/>
			<path id="path3448" inkscape:connector-curvature="0" display="inline" fill="#FFFFFF" d="M102.761,69.685
				c0.462,1.736,1.396,5.23,1.418,5.299c0.033,0.106,2.396-0.591,3.429-1.272L102.761,69.685z"/>
			<path id="path3459" inkscape:connector-curvature="0" display="inline" fill="#FFFFFF" d="M96.031,69.599l-1.603,5.541
				c1.724,0.465,3.329,0.56,4.912,0.53L96.031,69.599z"/>
			<path id="path3472" inkscape:connector-curvature="0" display="inline" fill="#FFFFFF" d="M92.162,67.305l-3.357,2.987
				c-0.154,1.191,0.497,1.926,1.291,2.576C90.829,71.021,92.296,67.328,92.162,67.305z"/>
			<path id="path3485" inkscape:connector-curvature="0" display="inline" fill="#FFFFFF" d="M106.796,67.358l3.314,4.17
				c0.617-1.06,0.521-2.212-0.382-3.4L106.796,67.358z"/>
		</g>
	</g>
	<g>
		<path fill="#FFFFFF" d="M324.044,121.249h-11.754V58.387h11.754v32.041c0,2.786-0.261,5.659-0.609,8.01l12.189-14.279h13.061
			l-13.147,15.15l14.54,21.94h-13.67l-9.229-14.018l-3.135,3.309V121.249z"/>
		<path fill="#FFFFFF" d="M354.172,70.576c0-4.267,3.482-7.313,7.487-7.313c4.006,0,7.4,3.047,7.4,7.313c0,4.354-3.395,7.4-7.4,7.4
			C357.655,77.977,354.172,74.93,354.172,70.576z M355.74,84.158h11.754v37.091H355.74V84.158z"/>
		<path fill="#FFFFFF" d="M380.728,107.318V93.91h-5.484v-9.752h5.484V64.83h11.667v19.328h9.49v9.752h-9.49v13.757
			c0,3.743,1.22,4.527,3.048,4.527c1.915,0,3.309-1.045,4.092-1.567l4.44,8.185c-1.829,1.479-4.963,3.396-10.36,3.396
			C386.126,122.207,380.728,118.463,380.728,107.318z"/>
	</g>
	<polygon fill="#A00000" points="216.875,76.011 203.875,76.011 203.875,63.011 191.875,63.011 191.875,76.011 178.875,76.011 
		178.875,88.011 191.875,88.011 191.875,101.011 203.875,101.011 203.875,88.011 216.875,88.011 	"/>
</g>
<g id="Layer_2">
</g>
</svg>
