<?xml version="1.0" encoding="utf-8"?>
<!-- Generator: Adobe Illustrator 16.0.0, SVG Export Plug-In . SVG Version: 6.00 Build 0)  -->
<!DOCTYPE svg PUBLIC "-//W3C//DTD SVG 1.1//EN" "http://www.w3.org/Graphics/SVG/1.1/DTD/svg11.dtd">
<svg version="1.1" id="Layer_1" xmlns="http://www.w3.org/2000/svg" xmlns:xlink="http://www.w3.org/1999/xlink" x="0px" y="0px"
	 width="133px" height="133px" viewBox="0 0 133 133" enable-background="new 0 0 133 133" xml:space="preserve">
<rect fill="#F8DC3E" width="133" height="133"/>
<g>
	<path fill="#010101" d="M35.35,110.888l9.926-6.007c1.915,3.396,3.656,6.269,7.836,6.269c4.005,0,6.53-1.567,6.53-7.662V62.044
		h12.189v41.617c0,12.625-7.401,18.371-18.197,18.371C43.883,122.032,38.223,116.982,35.35,110.888z"/>
	<path fill="#010101" d="M78.451,109.582l9.926-5.746c2.611,4.266,6.007,7.4,12.015,7.4c5.05,0,8.271-2.525,8.271-6.008
		c0-4.179-3.309-5.659-8.881-8.097l-3.047-1.307c-8.794-3.743-14.628-8.445-14.628-18.371c0-9.142,6.966-16.106,17.849-16.106
		c7.749,0,13.321,2.698,17.327,9.751l-9.49,6.095c-2.09-3.744-4.354-5.224-7.837-5.224c-3.569,0-5.833,2.264-5.833,5.224
		c0,3.656,2.264,5.137,7.487,7.4l3.048,1.307c10.361,4.44,16.194,8.968,16.194,19.154c0,10.971-8.62,16.978-20.199,16.978
		C89.333,122.032,82.02,116.635,78.451,109.582z"/>
</g>
<polygon fill="#9F1C20" points="45.56,76.011 32.561,76.011 32.561,63.011 20.561,63.011 20.561,76.011 7.56,76.011 7.56,88.011 
	20.561,88.011 20.561,101.011 32.561,101.011 32.561,88.011 45.56,88.011 "/>
</svg>
